<svg id="Calque_1" data-name="Calque 1" xmlns="http://www.w3.org/2000/svg" viewBox="0 0 283.75 169.23"><defs><style>.cls-1,.cls-3{fill:#fe650c;}.cls-2,.cls-4{fill:#5191ce;}.cls-2{stroke:#5191ce;}.cls-2,.cls-3{stroke-linecap:round;stroke-linejoin:round;stroke-width:3px;}.cls-3{stroke:#fe650c;}</style></defs><title>openportal_logo</title><rect class="cls-1" x="182.75" y="77.06" width="18" height="90" rx="5" ry="5"/><path class="cls-2" d="M179,300.67a83.45,83.45,0,0,1-45-13.21l9.47-14.72A65.56,65.56,0,0,0,225.7,171.65l12.47-12.27a83.06,83.06,0,0,1-50.78,140.86A81.48,81.48,0,0,1,179,300.67Z" transform="translate(-94.25 -132.94)"/><path class="cls-3" d="M119.58,275.73A83.06,83.06,0,0,1,223.75,147.65l-9.47,14.72a64.76,64.76,0,0,0-42.12-10.09,65.68,65.68,0,0,0-58.56,72,64.79,64.79,0,0,0,18.46,39.19Z" transform="translate(-94.25 -132.94)"/><path class="cls-4" d="M373,203H281.29a5,5,0,0,1-5-5V138a5,5,0,0,1,5-5H373a5,5,0,0,1,5,5v60A5,5,0,0,1,373,203Zm-11.28-20.61V153.61a5,5,0,0,0-5-5H297.57a5,5,0,0,0-5,5v28.78a5,5,0,0,0,5,5h59.15A5,5,0,0,0,361.72,182.39Z" transform="translate(-94.25 -132.94)"/></svg>