<svg id="Calque_1" data-name="Calque 1" xmlns="http://www.w3.org/2000/svg" viewBox="0 0 292 351.5"><defs><style>.cls-1,.cls-2{fill:#3d3d3d;}.cls-1{stroke:#000;stroke-miterlimit:10;}</style></defs><title>board-icon</title><path class="cls-1" d="M216.5,218.5" transform="translate(-122.5 -90)"/><path class="cls-2" d="M189.5,321.5l9-20,19,5-1,21s8,7,10,9,8,9,8,9l21-4,6,20-20,9s0,10-1,13-5,10-5,10l14,17-14,16-18-13s-8,4-11,5-12,2-12,2l-8,21-21-5,3-22s-11-7-12-8-6-9-6-9l-22,4-6-20,21-9s-1-8,0-12,5-11,5-11l-14-18,15-16,17,14,10-5C178.5,323.5,189.5,321.5,189.5,321.5Zm-15,50a18,18,0,1,0,18-18A18,18,0,0,0,174.5,371.5Z" transform="translate(-122.5 -90)"/><path class="cls-2" d="M275.5,318.5s6.45-7.45,9-10c3-3,9-8,9-8l-6-23,18-7,11,20h27l10-20,19,7-6,22s7,6,9,8,10,11,10,11l21-6,7,18-19,11v12c0,4-1,14-1,14l21,11-8,19-22-7s-6,7-8,9-11,10-11,10l6,21-18,8-10-19h-14c-3,0-13-1-13-1l-11,20-18-7,7-22s-9-7-11-9-8-10-8-10l-22,6-7-18,19-10s-1-10-1-13,1-14,1-14l-19-11,7-18Zm28,36a26,26,0,1,0,26-26A26,26,0,0,0,303.5,354.5Z" transform="translate(-122.5 -90)"/><ellipse class="cls-2" cx="146" cy="300" rx="13" ry="12.2" transform="translate(-273.3 57.6) rotate(-36.87)"/><path class="cls-2" d="M137.45,291.58l14.86,18.62L204,277s5-3,4-10-3-26-3-26l28,15,28,48,21-12-25-52a23,23,0,0,0-7-6l-30-18,21-31,11,23s3,6,9,6,49,1,49,1V195l-39-4s-13-33-14-34-11-11-17-15-13-8-19-9-48-5-48-5-8-1-12,6-21,29-21,29l14.5,14.5,22-25,23,4-21,34s-6,9-7,12-2,9,0,20,7,37,6,38S137.45,291.58,137.45,291.58Z" transform="translate(-122.5 -90)"/><ellipse class="cls-2" cx="270" cy="295" rx="12.52" ry="13" transform="translate(-226.96 64.63) rotate(-26.99)"/><ellipse class="cls-2" cx="148.27" cy="169.32" rx="11.5" ry="10.21" transform="translate(-198.95 91.73) rotate(-51.95)"/><ellipse class="cls-2" cx="185" cy="115" rx="10.5" ry="11"/><circle class="cls-2" cx="143.5" cy="27" r="27"/></svg>