<?xml version="1.0" encoding="utf-8"?>
<!-- Generator: Adobe Illustrator 22.0.1, SVG Export Plug-In . SVG Version: 6.00 Build 0)  -->
<svg version="1.1" id="Capa_1" xmlns="http://www.w3.org/2000/svg" xmlns:xlink="http://www.w3.org/1999/xlink" x="0px" y="0px"
	 viewBox="0 0 512 512" style="enable-background:new 0 0 512 512;" xml:space="preserve">
<style type="text/css">
	.st0{fill:#FFFFFF;}
</style>
<g>
	<g>
		<polygon class="st0" points="512,165.7 258.2,68 0,165.7 258.2,249.4 		"/>
		<path class="st0" d="M409,279.5v-71.9l-153,51l-151.3-51v71.4c80.5,1.6,152.1,48.8,152.1,48.8C340.3,275.2,409,279.5,409,279.5z"
			/>
		<path class="st0" d="M423.2,340.7V444h29.5V340.7c0-4.7-2.5-8.8-6.3-11c3.8-2.7,6.3-7.1,6.3-12.1c0-5.8-3.4-10.9-8.4-13.2l0-0.2
			v-109l-12.9,4.1v104.4l0.4,0.5c-5.1,2.3-8.7,7.4-8.7,13.4c0,5,2.5,9.4,6.3,12.1C425.7,331.9,423.2,336,423.2,340.7z"/>
	</g>
</g>
</svg>
